<?xml version="1.0" encoding="utf-8"?>
<!-- Generator: Adobe Illustrator 18.1.0, SVG Export Plug-In . SVG Version: 6.00 Build 0)  -->
<!DOCTYPE svg PUBLIC "-//W3C//DTD SVG 1.1//EN" "http://www.w3.org/Graphics/SVG/1.1/DTD/svg11.dtd">
<svg version="1.1" id="Layer_1" xmlns="http://www.w3.org/2000/svg" xmlns:xlink="http://www.w3.org/1999/xlink" x="0px" y="0px"
	 viewBox="0 0 595.3 841.9" enable-background="new 0 0 595.3 841.9" xml:space="preserve">
<path fill="#D9272E" d="M296.8,168.2C157.2,168.2,43.9,281.4,43.9,421c0,139.6,113.2,252.8,252.8,252.8S549.6,560.6,549.6,421
	C549.6,281.4,436.4,168.2,296.8,168.2z M428.1,510.5c0,4.3-3.5,7.8-7.8,7.8h-33.1c-4.3,0-7.8-3.5-7.8-7.8V408.8c0-0.9-1-1.3-1.7-0.7
	l-70,70c-6.1,6.1-15.9,6.1-22,0l-70-70c-0.6-0.6-1.7-0.2-1.7,0.7v101.7c0,4.3-3.5,7.8-7.8,7.8h-33.1c-4.3,0-7.8-3.5-7.8-7.8V331.5
	c0-4.3,3.5-7.8,7.8-7.8H196c4.1,0,8.1,1.6,11,4.6l87,87c1.5,1.5,4,1.5,5.5,0l87-87c2.9-2.9,6.9-4.6,11-4.6h22.7
	c4.3,0,7.8,3.5,7.8,7.8V510.5z"/>
</svg>
